<svg width="28" height="28" viewBox="0 0 28 28" fill="none" xmlns="http://www.w3.org/2000/svg">
<path d="M2.625 14L13.0725 3.55248C13.1943 3.43064 13.3389 3.33398 13.498 3.26804C13.6572 3.20209 13.8277 3.16815 14 3.16815C14.1723 3.16815 14.3428 3.20209 14.502 3.26804C14.6611 3.33398 14.8057 3.43064 14.9275 3.55248L25.375 14M5.25 11.375V23.1875C5.25 23.912 5.838 24.5 6.5625 24.5H11.375V18.8125C11.375 18.088 11.963 17.5 12.6875 17.5H15.3125C16.037 17.5 16.625 18.088 16.625 18.8125V24.5H21.4375C22.162 24.5 22.75 23.912 22.75 23.1875V11.375" stroke="#C9CDD2" stroke-width="1.5" stroke-linecap="round" stroke-linejoin="round"/>
</svg>
